<?xml version="1.0" encoding="UTF-8"?>
<svg version="1.1" xmlns="http://www.w3.org/2000/svg" width="488" height="511">
<path d="M0 0 C1.70703125 1.359375 1.70703125 1.359375 3.83203125 4.609375 C4.07052995 8.39045193 3.51207241 11.89571271 2.83203125 15.609375 C-0.44922857 38.044989 5.2071911 59.69067498 18.56640625 77.984375 C25.8093858 87.32243128 33.86420678 96.38680328 42.94140625 103.9765625 C46.42847848 106.98812488 49.6145639 110.3148938 52.83203125 113.609375 C56.39179319 112.34682968 58.91215655 110.95581742 61.70703125 108.421875 C62.73957031 107.48794922 62.73957031 107.48794922 63.79296875 106.53515625 C66.27716009 104.18897554 68.68135181 101.77467645 71.0703125 99.33203125 C72.81501811 97.62601091 74.63577565 96.09660384 76.51953125 94.546875 C92.71511564 80.45828897 104.76977893 61.03345322 107.83203125 39.609375 C108.06413221 35.99869701 108.06900342 32.41355136 108.01953125 28.796875 C108.01888672 27.88228516 108.01824219 26.96769531 108.01757812 26.02539062 C107.98956769 21.74601853 107.82945401 17.78941388 106.83203125 13.609375 C106.28189646 9.01967901 105.99711893 5.76747919 108.76953125 1.921875 C109.78015625 1.15875 110.79078125 0.395625 111.83203125 -0.390625 C112.41726563 -0.84824219 113.0025 -1.30585938 113.60546875 -1.77734375 C130.80000702 -14.3273803 152.64672057 -18.48185846 173.51953125 -18.703125 C174.90495117 -18.74663086 174.90495117 -18.74663086 176.31835938 -18.79101562 C180.67747081 -18.83181364 183.1304322 -18.82189945 186.9140625 -16.49609375 C190.01006384 -13.09742832 189.97294324 -11.03535047 190.03735352 -6.51196289 C190.05727859 -5.26805283 190.07720367 -4.02414276 190.09773254 -2.74253845 C190.11476892 -1.36612105 190.13166643 0.01029809 190.1484375 1.38671875 C190.16924926 2.81494165 190.19043057 4.2431592 190.21195984 5.67137146 C190.26816945 9.50387589 190.31773022 13.33643636 190.36506653 17.16905975 C190.39443578 19.53917063 190.42491807 21.90926485 190.45568848 24.27935791 C190.56689859 32.89869319 190.66860485 41.51809892 190.76125908 50.13765335 C190.81094108 54.75052114 190.86544689 59.36330024 190.92333984 63.97607422 C190.98590813 69.07971958 191.03291726 74.1832018 191.0632019 79.28713989 C191.07565909 81.07158587 191.09309801 82.8560047 191.11575317 84.64035034 C191.14518893 87.07551418 191.15544677 89.50999307 191.16015625 91.9453125 C191.17245773 92.63072617 191.18475922 93.31613983 191.19743347 94.02232361 C191.17518135 98.84216317 190.24487814 102.43485764 187.83203125 106.609375 C183.46781045 109.67852215 179.27140267 110.08279682 174.07421875 110.19921875 C172.55613611 110.25886557 171.03807023 110.31894021 169.52001953 110.37939453 C168.73371155 110.40600159 167.94740356 110.43260864 167.13726807 110.46002197 C130.25587698 111.7781077 95.24736928 121.99893978 66.83203125 146.609375 C62.13938595 150.54955531 59.23239986 151.67801634 53.0625 152.03515625 C47.99187634 151.06720883 44.02512462 147.01064941 40.14111328 143.80371094 C15.40889855 123.51024393 -16.49724426 112.94336949 -48.1953125 111.09375 C-48.90895462 111.05195618 -49.62259674 111.01016235 -50.35786438 110.96710205 C-53.96351409 110.76164848 -57.56857564 110.57963316 -61.17700195 110.43066406 C-62.52295078 110.36526641 -63.8688981 110.29983801 -65.21484375 110.234375 C-66.40948242 110.18539062 -67.60412109 110.13640625 -68.83496094 110.0859375 C-73.41740989 109.43072652 -76.77220292 108.25644072 -79.81576538 104.66490173 C-81.82651597 100.12127883 -81.5856973 95.86395282 -81.55615234 90.94750977 C-81.5614093 89.87377106 -81.56666626 88.80003235 -81.57208252 87.6937561 C-81.58528133 84.14594964 -81.57654388 80.59859225 -81.56640625 77.05078125 C-81.56842716 74.58365289 -81.57133874 72.11652512 -81.57510376 69.6493988 C-81.57952709 64.47869174 -81.57309611 59.30814016 -81.55908203 54.13745117 C-81.54199935 47.5118117 -81.55182581 40.88653704 -81.56979942 34.26091099 C-81.58064451 29.16596228 -81.57718738 24.07109993 -81.56941605 18.97614861 C-81.56741559 16.53332412 -81.56986787 14.09049178 -81.57685471 11.64767647 C-81.58447982 8.23178497 -81.57284887 4.81648245 -81.55615234 1.40063477 C-81.56222504 0.39212967 -81.56829773 -0.61637543 -81.57455444 -1.65544128 C-81.52629776 -6.98906848 -81.1808375 -10.78909776 -78.16796875 -15.390625 C-61.02285309 -31.42960416 -16.23077378 -10.41109093 0 0 Z " fill="#5315D3" transform="translate(188.16796875,224.390625)"/>
<path d="M0 0 C0.89710693 0.47920898 1.79421387 0.95841797 2.71850586 1.45214844 C3.72196045 1.9597168 4.72541504 2.46728516 5.75927734 2.99023438 C8.16473905 4.2080241 10.56366367 5.43506718 12.95874023 6.67285156 C18.32709614 9.4367883 23.73467626 12.12158224 29.14038086 14.81152344 C37.5068408 18.97714849 45.8686055 23.15182546 54.22241211 27.34277344 C56.15982801 28.3146213 58.09724656 29.2864639 60.03466797 30.25830078 C60.94578339 30.71533386 61.8568988 31.17236694 62.79562378 31.64324951 C71.04073846 35.77751852 79.29030555 39.9028451 87.55053711 44.00683594 C97.64980964 49.02902616 107.70621523 54.10576874 117.64624023 59.43725586 C121.43235311 61.45137986 125.2304787 63.35818658 129.14819336 65.10449219 C129.91655518 65.44899414 130.68491699 65.79349609 131.4765625 66.1484375 C132.91128267 66.78275786 134.35276786 67.40212218 135.80224609 68.00195312 C140.7815451 70.19959335 144.62273261 73.18468943 147.40600586 77.95214844 C147.95693693 81.8849914 147.12803644 84.95241379 144.78100586 88.20214844 C142.7898094 89.66934583 140.87790064 90.83075027 138.71850586 92.01464844 C135.15332113 93.61148006 135.15332113 93.61148006 134.40600586 96.95214844 C134.2994623 98.53079368 134.24741993 100.11342732 134.22900391 101.69555664 C134.21616867 102.65698074 134.20333344 103.61840485 134.19010925 104.60896301 C134.18272232 105.64647202 134.17533539 106.68398102 134.16772461 107.75292969 C134.15965286 108.822061 134.15158112 109.89119232 134.14326477 110.99272156 C134.12942995 113.25644308 134.1187051 115.52018541 134.11083984 117.78393555 C134.09362462 121.24080018 134.0497317 124.69670904 134.00561523 128.15332031 C133.99548833 130.35318308 133.98697222 132.55305396 133.98022461 134.75292969 C133.95396248 136.30008415 133.95396248 136.30008415 133.9271698 137.87849426 C133.94543687 143.94061416 134.464083 147.28502067 138.40600586 151.95214844 C141.27091526 156.69971258 140.90700314 161.55859963 140.40600586 166.95214844 C138.51968525 172.41255021 135.47260414 175.1713356 130.54272461 178.03417969 C125.95841372 180.0036734 120.73094488 179.87656958 116.11694336 178.04199219 C111.67453111 175.4547446 108.66650041 172.6539771 106.40600586 167.95214844 C104.79486284 161.83204267 105.27130177 157.57299716 108.40600586 151.95214844 C109.43322754 150.92021362 109.43322754 150.92021362 110.48120117 149.86743164 C113.25828315 145.66130076 113.00874595 141.99755157 113.01538086 137.05761719 C113.03191711 136.11026199 113.04845337 135.1629068 113.06549072 134.18684387 C113.11394477 131.17104594 113.13533609 128.15575218 113.15600586 125.13964844 C113.18416768 123.09079498 113.2140954 121.04196499 113.24584961 118.99316406 C113.31970323 113.97953369 113.36929387 108.96618278 113.40600586 103.95214844 C112.83269531 104.27489746 112.25938477 104.59764648 111.66870117 104.93017578 C87.46611657 118.42945131 87.46611657 118.42945131 77.765625 116.3996582 C66.93806492 113.09507771 56.69490608 108.49881233 46.34350586 103.95214844 C44.38623377 103.09869211 42.42863009 102.24599587 40.47070312 101.39404297 C36.58855705 99.70424357 32.70769882 98.01154383 28.82788086 96.31640625 C21.51271824 93.1230193 14.18040742 89.97019514 6.84350586 86.82714844 C5.70453857 86.33730469 4.56557129 85.84746094 3.39208984 85.34277344 C1.85016968 84.68148437 1.85016968 84.68148437 0.27709961 84.00683594 C-0.60018799 83.63026855 -1.47747559 83.25370117 -2.38134766 82.86572266 C-10.34616996 79.57714657 -18.45053284 79.82099754 -26.43800354 82.92402649 C-30.00363092 84.42328789 -33.51884412 86.02092755 -37.03149414 87.63964844 C-38.56387533 88.32424998 -40.097343 89.0064243 -41.63183594 89.6862793 C-44.76269841 91.07660945 -47.88785933 92.47868431 -51.0090332 93.890625 C-57.3128595 96.73563828 -63.66524157 99.46676753 -70.01785278 102.20059204 C-72.97963372 103.47720113 -75.93694449 104.76407567 -78.89477539 106.04980469 C-79.99104248 106.52369629 -81.08730957 106.99758789 -82.21679688 107.48583984 C-84.58806397 108.51539454 -86.95401202 109.55369432 -89.31689453 110.60205078 C-90.55245638 111.14460836 -91.78805116 111.68709094 -93.02368164 112.22949219 C-94.1205127 112.71538818 -95.21734375 113.20128418 -96.34741211 113.7019043 C-104.79073948 116.9533917 -112.95626 117.9380879 -121.59399414 114.95214844 C-127.05764434 112.46856872 -132.35131848 109.6922133 -137.65649414 106.88964844 C-139.0694368 106.15502211 -140.48284604 105.42129246 -141.89672852 104.68847656 C-146.14747684 102.47678424 -150.37446526 100.22274533 -154.59399414 97.95214844 C-155.3376825 97.55392883 -156.08137085 97.15570923 -156.84759521 96.74542236 C-159.05952798 95.55563769 -161.26333027 94.35204717 -163.46508789 93.14355469 C-164.47382713 92.60189919 -164.47382713 92.60189919 -165.50294495 92.04930115 C-168.98051128 90.11728249 -171.6259178 88.46540504 -173.59399414 84.95214844 C-174.1591364 81.62408847 -174.35652955 79.24321607 -172.59281921 76.2570343 C-168.24251788 70.95158389 -163.30732171 68.2937986 -157.17602539 65.37011719 C-156.16416672 64.87103348 -155.15230804 64.37194977 -154.10978699 63.85774231 C-150.88261129 62.26969859 -147.64520711 60.704007 -144.40649414 59.13964844 C-141.22875003 57.58725342 -138.05329864 56.03024659 -134.87814331 54.4725647 C-132.78292637 53.4448842 -130.6868334 52.41898784 -128.58987427 51.39486694 C-121.46511882 47.90612584 -114.42624247 44.28181237 -107.42280579 40.55656433 C-99.68636867 36.44779231 -91.85359608 32.54159698 -84.00662231 28.64916992 C-67.9980699 20.71372991 -67.9980699 20.71372991 -52.15649414 12.45214844 C-49.30616198 10.94478028 -46.45046488 9.44784267 -43.59399414 7.95214844 C-42.67634277 7.46713867 -41.75869141 6.98212891 -40.81323242 6.48242188 C-37.7956261 4.90207533 -34.76016861 3.36157589 -31.71899414 1.82714844 C-30.8031958 1.34052734 -29.88739746 0.85390625 -28.94384766 0.35253906 C-19.22044484 -4.46329312 -9.78602281 -4.87375313 0 0 Z " fill="#5315D3" transform="translate(256.593994140625,3.0478515625)"/>
<path d="M0 0 C0.68704514 0.26634247 1.37409027 0.53268494 2.08195496 0.80709839 C9.76663674 3.82330527 17.31028793 7.15909989 24.84375 10.53125 C26.31934177 11.1883408 27.7950932 11.84507316 29.27099609 12.50146484 C31.51301181 13.49890207 33.75476766 14.49689775 35.99560547 15.49697876 C40.80709996 17.64387726 45.62844951 19.76685306 50.45703125 21.875 C51.68914738 22.41497105 52.92116489 22.95516722 54.15307617 23.49560547 C56.41826169 24.48856783 58.68523882 25.47745746 60.9543457 26.46142578 C74.59578463 32.47078463 74.59578463 32.47078463 78.53125 36.40625 C78.6343535 37.76624428 78.6697388 39.13148125 78.67651367 40.49536133 C78.68289352 41.36328812 78.68927338 42.2312149 78.69584656 43.1254425 C78.69751579 44.54254768 78.69751579 44.54254768 78.69921875 45.98828125 C78.70254715 46.95400558 78.70587555 47.91972992 78.70930481 48.91471863 C78.71437927 50.96340456 78.71671298 53.0120988 78.71655273 55.06079102 C78.71873345 58.19496346 78.73686776 61.32878081 78.75585938 64.46289062 C78.75879433 66.45051963 78.76077844 68.4381503 78.76171875 70.42578125 C78.76890427 71.36444534 78.77608978 72.30310944 78.78349304 73.2702179 C78.78041641 74.14760117 78.77733978 75.02498444 78.77416992 75.92895508 C78.77559494 76.6987117 78.77701996 77.46846832 78.77848816 78.2615509 C78.49999471 80.677378 77.73220962 82.30854805 76.53125 84.40625 C72.20975772 85.05855072 69.7563759 85.13136217 65.9375 82.87109375 C63.10212455 80.75678361 60.31724619 78.58509116 57.53125 76.40625 C43.15037171 66.20970077 27.68401537 60.07371756 10.53125 56.40625 C9.42136719 56.16003906 8.31148438 55.91382813 7.16796875 55.66015625 C-23.83885591 50.0611655 -56.21186563 55.97497065 -82.46875 73.40625 C-85.45346515 75.61272314 -88.26808516 77.99096089 -91.0390625 80.4609375 C-94.7628399 83.44235413 -97.88306497 85.46723789 -102.71875 85.28125 C-105.46875 84.40625 -105.46875 84.40625 -107.46875 81.40625 C-107.73617554 79.36402893 -107.73617554 79.36402893 -107.75927734 76.99829102 C-107.77203705 76.11049454 -107.78479675 75.22269806 -107.79794312 74.30799866 C-107.80016876 73.35171066 -107.80239441 72.39542267 -107.8046875 71.41015625 C-107.8113443 70.42506577 -107.8180011 69.43997528 -107.82485962 68.42503357 C-107.83498661 66.34123605 -107.83967662 64.25740609 -107.83935547 62.17358398 C-107.84372865 58.98432041 -107.88004821 55.79644053 -107.91796875 52.60742188 C-107.92383685 50.58333807 -107.92780629 48.55924769 -107.9296875 46.53515625 C-107.94405853 45.58089249 -107.95842957 44.62662872 -107.97323608 43.64344788 C-107.9278801 37.0762201 -107.9278801 37.0762201 -105.78662109 33.95166016 C-103.22607393 32.24444891 -100.7135989 30.8519813 -97.921875 29.55078125 C-96.78596924 29.01888184 -95.65006348 28.48698242 -94.47973633 27.93896484 C-93.22638862 27.36487301 -91.97271633 26.79148935 -90.71875 26.21875 C-90.07924408 25.92333313 -89.43973816 25.62791626 -88.78085327 25.32354736 C-76.7132227 19.74954214 -64.51205792 14.48545567 -52.28125 9.28125 C-51.42430542 8.9161734 -50.56736084 8.5510968 -49.68444824 8.17495728 C-15.70308101 -6.27246217 -15.70308101 -6.27246217 0 0 Z " fill="#5215D4" transform="translate(257.46875,102.59375)"/>
<path d="M0 0 C1.051875 0.00386719 2.10375 0.00773438 3.1875 0.01171875 C6 0.3125 6 0.3125 9 2.3125 C9.2734375 4.73828125 9.2734375 4.73828125 9.375 7.625 C9.70694195 10.65181484 9.70694195 10.65181484 11 13.3125 C14.08655167 15.07301115 17.12934372 15.97707746 20.5234375 17.015625 C26.99876791 19.43114151 32.94121933 24.51509618 36.125 30.75 C37.31380487 35.59013411 38.63864951 41.57335525 35.94140625 46.08203125 C32.96783531 47.96668889 29.97052624 47.78594275 26.5625 47.75 C24.58443359 47.77900391 24.58443359 47.77900391 22.56640625 47.80859375 C19 47.3125 19 47.3125 16.65625 45.515625 C15.20733431 43.58829375 14.01505742 41.77545009 12.9375 39.625 C11.34066837 36.05981527 11.34066837 36.05981527 8 35.3125 C5.34152131 35.19023841 2.72076362 35.12737982 0.0625 35.125 C-1.01161133 35.10663086 -1.01161133 35.10663086 -2.10742188 35.08789062 C-5.86770596 35.07743571 -8.87544515 35.08067511 -12 37.3125 C-13.14993366 39.61236731 -13.2316929 41.12719088 -13.3125 43.6875 C-13.34988281 44.45835937 -13.38726562 45.22921875 -13.42578125 46.0234375 C-12.81794716 49.29124278 -11.62891051 50.30290014 -9 52.3125 C-6.53653897 53.27098948 -4.2196047 54.04933958 -1.6875 54.75 C-0.25101914 55.17613071 1.18517231 55.60323804 2.62109375 56.03125 C3.34925293 56.24394531 4.07741211 56.45664063 4.82763672 56.67578125 C30.03236698 64.06327693 30.03236698 64.06327693 36.8828125 74.2421875 C41.15893205 82.16646498 40.70672532 91.22024371 38.8125 99.796875 C36.35626824 107.40174641 30.69101839 114.03645182 24 118.3125 C14.57988166 122.3125 14.57988166 122.3125 10 122.3125 C9.95101562 123.01117188 9.90203125 123.70984375 9.8515625 124.4296875 C9.77679688 125.33976562 9.70203125 126.24984375 9.625 127.1875 C9.55539063 128.09242188 9.48578125 128.99734375 9.4140625 129.9296875 C9 132.3125 9 132.3125 7 134.3125 C3.8125 134.578125 3.8125 134.578125 0 134.5625 C-1.258125 134.56765625 -2.51625 134.5728125 -3.8125 134.578125 C-7 134.3125 -7 134.3125 -9 132.3125 C-9.1953125 129.7109375 -9.1953125 129.7109375 -9.125 126.6875 C-9.10695312 125.68460937 -9.08890625 124.68171875 -9.0703125 123.6484375 C-9.04710937 122.87757813 -9.02390625 122.10671875 -9 121.3125 C-10.27875 121.27125 -11.5575 121.23 -12.875 121.1875 C-21.66601871 120.17846798 -28.04885393 114.89449622 -33.625 108.33984375 C-36.44494199 104.18203156 -37.27724856 100.61829781 -37.25 95.625 C-37.25515625 94.67238281 -37.2603125 93.71976562 -37.265625 92.73828125 C-37 90.3125 -37 90.3125 -35 88.3125 C-32.32264758 88.03299618 -29.80474346 87.89634309 -27.125 87.875 C-26.40441406 87.84212891 -25.68382812 87.80925781 -24.94140625 87.77539062 C-21.06985329 87.736176 -19.39838991 87.9231351 -16.5859375 90.671875 C-15.52920965 92.4313529 -14.50028105 94.20782979 -13.5 96 C-11.75635157 98.68812467 -10.97006093 99.20610313 -8 100.3125 C-0.9300303 101.01298087 7.38526689 101.62582116 13.66015625 97.78125 C15.94454168 95.27708405 16.29241432 92.81593701 16.36328125 89.49609375 C16.11489186 87.0395691 16.11489186 87.0395691 14 84.4375 C7.81496819 80.0564358 0.97851743 78.41236445 -6.25 76.5 C-17.43802448 73.40253707 -27.59500412 69.74108335 -35 60.3125 C-38.88079158 53.08011568 -39.15999231 43.54585611 -36.875 35.75 C-34.09722798 28.29934047 -28.71966892 21.59787377 -22 17.3125 C-13.0310559 13.3125 -13.0310559 13.3125 -9 13.3125 C-9.03480469 12.62542969 -9.06960937 11.93835938 -9.10546875 11.23046875 C-9.13253906 10.32941406 -9.15960938 9.42835938 -9.1875 8.5 C-9.23970703 7.16001953 -9.23970703 7.16001953 -9.29296875 5.79296875 C-9 3.3125 -9 3.3125 -7.86328125 1.5078125 C-5.19881261 -0.20146927 -3.13936526 -0.0500144 0 0 Z " fill="#5114D3" transform="translate(243,179.6875)"/>
<path d="M0 0 C31.32432432 0 31.32432432 0 37 5 C41.06570968 10.38431822 42.16459294 14.1293972 42.25 20.8125 C42.27578125 22.01519531 42.3015625 23.21789062 42.328125 24.45703125 C41.97033286 28.32033444 40.92580732 30.66482993 39 34 C38.4121875 35.175625 38.4121875 35.175625 37.8125 36.375 C37.544375 36.91125 37.27625 37.4475 37 38 C37.763125 38.70125 38.52625 39.4025 39.3125 40.125 C44.98327733 46.19141296 45.54718544 51.47535496 45.34375 59.51953125 C44.59633733 67.08708454 41.77909587 71.982316 35.9765625 76.80859375 C25.07179743 83.38162408 12.47362842 80 0 80 C0 53.6 0 27.2 0 0 Z " fill="#1A1A1A" transform="translate(215,407)"/>
<path d="M0 0 C3.00354066 1.04530518 5.27104375 2.32064231 8 4 C8 3.01 8 2.02 8 1 C11.96 1 15.92 1 20 1 C20.06808015 8.7806882 20.12299024 16.56121029 20.15543652 24.3421154 C20.17101793 27.95605511 20.19211627 31.56977849 20.22631836 35.18359375 C20.25918345 38.67845884 20.27690942 42.17311732 20.28463173 45.66812515 C20.29278089 47.63435945 20.31615582 49.60051194 20.33988953 51.56661987 C20.34162208 60.89877848 19.52897628 69.98983933 13.48828125 77.52734375 C8.79156034 82.17475525 4.01039639 83.26640939 -2.5 83.5 C-8.24185054 83.31392151 -12.2869401 82.25345979 -17 79 C-17.969375 78.34 -18.93875 77.68 -19.9375 77 C-22.18774938 74.81794 -22.73521348 74.06711054 -23 71 C-21.78515625 68.640625 -21.78515625 68.640625 -20.0625 66.25 C-19.49660156 65.45078125 -18.93070312 64.6515625 -18.34765625 63.828125 C-17.90292969 63.22484375 -17.45820313 62.6215625 -17 62 C-14.30521149 63.02786295 -12.05735968 63.95969319 -9.6875 65.625 C-5.81372829 67.60692971 -3.34156026 67.41348193 1 67 C3.5771736 66.25463249 3.5771736 66.25463249 5 64 C5.62094752 61.00671452 5.87206961 58.05113991 6 55 C4.865625 55.515625 3.73125 56.03125 2.5625 56.5625 C-2.19994591 58.32107102 -6.12243755 58.41493253 -11 57 C-17.46218843 53.98258536 -21.27806629 48.56491801 -23.75 42.01171875 C-26.41936938 32.16841918 -26.78805757 19.2150485 -22 10 C-15.38714522 1.08819776 -11.10281844 -1.06598132 0 0 Z " fill="#181818" transform="translate(386,428)"/>
<path d="M0 0 C4.29 0 8.58 0 13 0 C13 26.4 13 52.8 13 80 C9.04 80 5.08 80 1 80 C1 78.68 1 77.36 1 76 C0.29875 76.61875 -0.4025 77.2375 -1.125 77.875 C-5.2750707 80.94244356 -8.32196892 82.05992968 -13.5 81.875 C-20.42450418 80.14387396 -25.0559754 75.76308304 -29 70 C-31.73768291 63.98512814 -32.52263908 58.17668655 -32.4375 51.625 C-32.42920166 50.79572998 -32.42090332 49.96645996 -32.41235352 49.11206055 C-32.14646365 39.4274245 -29.73931267 31.70298773 -22.92578125 24.59765625 C-18.90688441 21.26352074 -15.06765134 19.95864697 -9.875 20.0625 C-7 21 -7 21 -1 25 C-0.67 16.75 -0.34 8.5 0 0 Z " fill="#191919" transform="translate(343,407)"/>
<path d="M0 0 C4.87416358 4.64206055 6.80397627 11.02304452 7.07910156 17.67431641 C7.07848053 19.48352206 7.05662231 21.2928213 7.015625 23.1015625 C7.00996521 24.064039 7.00430542 25.0265155 6.99847412 26.01815796 C6.97630863 29.05430534 6.92615133 32.08921699 6.875 35.125 C6.85490931 37.19920155 6.83666308 39.27342184 6.8203125 41.34765625 C6.77650915 46.39890447 6.70762216 51.44924367 6.625 56.5 C4.83406809 56.58086147 3.04210372 56.63912702 1.25 56.6875 C-0.24660156 56.73970703 -0.24660156 56.73970703 -1.7734375 56.79296875 C-2.63195312 56.69628906 -3.49046875 56.59960938 -4.375 56.5 C-5.035 55.51 -5.695 54.52 -6.375 53.5 C-7.15875 54.16 -7.9425 54.82 -8.75 55.5 C-13.02577566 58.35390252 -17.41307167 58.17435603 -22.375 57.5 C-26.78402117 55.73639153 -29.87988865 52.51032443 -32.375 48.5 C-34.74837623 42.95822495 -34.85124464 37.30799899 -33.375 31.5 C-30.45790522 25.77385098 -26.4655801 22.53019337 -20.375 20.5 C-17.80234182 20.42970879 -15.25858569 20.40629168 -12.6875 20.4375 C-11.98560547 20.44201172 -11.28371094 20.44652344 -10.56054688 20.45117188 C-8.83199462 20.46293073 -7.10348635 20.48086546 -5.375 20.5 C-6.10983694 17.67023318 -6.94131461 15.05709559 -8.375 12.5 C-11.20203565 10.91771077 -11.20203565 10.91771077 -14.375 11.5 C-17.22984511 13.77110728 -17.22984511 13.77110728 -19.375 16.5 C-19.705 16.83 -20.035 17.16 -20.375 17.5 C-22.23272162 17.41015699 -24.08747985 17.25388139 -25.9375 17.0625 C-26.94941406 16.96066406 -27.96132812 16.85882813 -29.00390625 16.75390625 C-29.78636719 16.67011719 -30.56882812 16.58632813 -31.375 16.5 C-31.10820527 10.49711863 -30.56720068 6.12216998 -26.375 1.5 C-17.55477807 -4.25713231 -9.52418248 -4.23296999 0 0 Z " fill="#181818" transform="translate(120.375,430.5)"/>
<path d="M0 0 C6.00936894 3.50640477 9.04874383 8.14970953 11.33203125 14.65234375 C12.58203125 20.08984375 12.58203125 20.08984375 12.58203125 33.08984375 C2.35203125 33.08984375 -7.87796875 33.08984375 -18.41796875 33.08984375 C-15.74296875 42.67734375 -15.74296875 42.67734375 -11.54296875 44.83984375 C-7.8648119 45.1340963 -5.71841271 44.74006573 -2.41796875 43.08984375 C-1.75796875 41.76984375 -1.09796875 40.44984375 -0.41796875 39.08984375 C3.54203125 39.41984375 7.50203125 39.74984375 11.58203125 40.08984375 C11.07831807 46.26033023 9.64774784 51.39867172 4.85546875 55.60546875 C0.06964048 58.92313456 -4.57022128 60.5545654 -10.41796875 60.08984375 C-17.06719292 58.62130344 -21.51006279 55.66721987 -25.9453125 50.578125 C-29.96703441 43.78280177 -30.95048861 36.94247575 -30.85546875 29.15234375 C-30.84717041 28.27352539 -30.83887207 27.39470703 -30.83032227 26.48925781 C-30.57097464 16.54729126 -27.87583192 10.13262154 -21.296875 2.68359375 C-15.61539157 -2.13562712 -6.81857385 -2.56660373 0 0 Z " fill="#181818" transform="translate(442.41796875,428.91015625)"/>
<path d="M0 0 C4.73749757 4.73749757 7.26052635 11.46398041 8.859375 17.859375 C8.859375 22.149375 8.859375 26.439375 8.859375 30.859375 C-1.040625 31.189375 -10.940625 31.519375 -21.140625 31.859375 C-19.84227431 37.29301812 -19.84227431 37.29301812 -17.140625 41.859375 C-15.49721633 41.95792155 -13.8494789 41.98909911 -12.203125 41.984375 C-11.30722656 41.98695313 -10.41132812 41.98953125 -9.48828125 41.9921875 C-7.11906945 42.01358913 -7.11906945 42.01358913 -5.140625 40.859375 C-4.480625 39.539375 -3.820625 38.219375 -3.140625 36.859375 C0.489375 37.189375 4.119375 37.519375 7.859375 37.859375 C7.57983815 44.42849089 5.10721777 48.87364405 0.859375 53.859375 C-3.63831396 57.05773159 -8.66409294 58.13188302 -14.140625 57.859375 C-20.2810217 56.46088344 -25.13248695 53.98410871 -28.890625 48.859375 C-29.303125 48.199375 -29.715625 47.539375 -30.140625 46.859375 C-30.759375 45.9003125 -30.759375 45.9003125 -31.390625 44.921875 C-34.45472588 38.96390107 -34.55487159 32.86101253 -34.640625 26.296875 C-34.65915527 25.4104834 -34.67768555 24.5240918 -34.69677734 23.61083984 C-34.60936004 14.37717329 -31.35126181 7.23922403 -25.0546875 0.52734375 C-17.6732803 -5.90502538 -7.88898437 -5.36450937 0 0 Z " fill="#181818" transform="translate(75.140625,431.140625)"/>
<path d="M0 0 C3.96 0 7.92 0 12 0 C13.59725854 3.19451707 13.19967129 6.67203586 13.24609375 10.18359375 C13.27902724 11.84961473 13.31223897 13.51563022 13.34570312 15.18164062 C13.39315917 17.81286913 13.43759797 20.44407462 13.47680664 23.07543945 C13.51648437 25.61172562 13.56803399 28.14755724 13.62109375 30.68359375 C13.6295079 31.47116562 13.63792206 32.25873749 13.64659119 33.07017517 C13.73311808 36.8869143 13.83393366 38.75090049 16 42 C17.97747122 42.36297936 17.97747122 42.36297936 20.125 42.1875 C21.40375 42.125625 22.6825 42.06375 24 42 C26.81837229 37.23235494 27.45240648 33.22497001 27.4765625 27.79296875 C27.49993179 26.64396843 27.49993179 26.64396843 27.52377319 25.47175598 C27.57102077 23.04367979 27.59898413 20.6158884 27.625 18.1875 C27.66148303 15.74145671 27.70201969 13.29557534 27.74765015 10.84968567 C27.77490089 9.33178733 27.79624175 7.81376944 27.81118774 6.29570007 C27.88928889 1.11071111 27.88928889 1.11071111 29 0 C32.96 0 36.92 0 41 0 C41 19.14 41 38.28 41 58 C37.04 58 33.08 58 29 58 C28.67 56.68 28.34 55.36 28 54 C26.824375 54.9590625 26.824375 54.9590625 25.625 55.9375 C21.11014968 59.48488239 17.60833892 59.52016634 12 59 C7.29186702 57.31217874 4.68259856 55.21551203 2 51 C-0.1166623 45.15916128 -0.2641102 39.86511011 -0.1953125 33.69140625 C-0.1924826 32.72468491 -0.18965271 31.75796356 -0.18673706 30.76194763 C-0.17560407 27.69533548 -0.15051224 24.62902285 -0.125 21.5625 C-0.11496131 19.47461361 -0.10583701 17.38672262 -0.09765625 15.29882812 C-0.07568727 10.19910456 -0.04120507 5.09960295 0 0 Z " fill="#19191A" transform="translate(265,429)"/>
<path d="M0 0 C5.40738702 2.70369351 7.45341407 5.71819214 10 11 C10.89328359 13.89304066 11.12220715 16.47191084 11.11352539 19.49316406 C11.11344986 20.37377502 11.11337433 21.25438599 11.11329651 22.16168213 C11.10813522 23.10348328 11.10297394 24.04528442 11.09765625 25.015625 C11.0962413 25.98659119 11.09482635 26.95755737 11.09336853 27.95794678 C11.08777663 31.05532935 11.07522559 34.15263932 11.0625 37.25 C11.05748395 39.35156146 11.05292123 41.45312404 11.04882812 43.5546875 C11.03780985 48.70315292 11.02055074 53.85156416 11 59 C7.04 59 3.08 59 -1 59 C-1.01981934 58.04746338 -1.03963867 57.09492676 -1.06005859 56.11352539 C-1.13679437 52.54052668 -1.22539978 48.96789966 -1.31738281 45.39526367 C-1.35539443 43.85627645 -1.39029293 42.31720876 -1.421875 40.77807617 C-1.58747906 28.74137254 -1.58747906 28.74137254 -4 17 C-6.77100394 15.61449803 -8.9334706 15.8122533 -12 16 C-15.24849977 17.72226496 -15.24849977 17.72226496 -16 21 C-16.15413876 23.87438548 -16.25747285 26.72898986 -16.31640625 29.60546875 C-16.33718735 30.44467361 -16.35796844 31.28387848 -16.37937927 32.14851379 C-16.44474018 34.82809294 -16.50369714 37.50776969 -16.5625 40.1875 C-16.60569802 42.00456737 -16.64931273 43.82162488 -16.69335938 45.63867188 C-16.8004078 50.09234799 -16.90171319 54.54612226 -17 59 C-21.29 59 -25.58 59 -30 59 C-30 39.86 -30 20.72 -30 1 C-26.04 1 -22.08 1 -18 1 C-17.67 2.32 -17.34 3.64 -17 5 C-16.071875 4.195625 -15.14375 3.39125 -14.1875 2.5625 C-9.70230905 -1.32466549 -5.65055737 -1.36170927 0 0 Z " fill="#191919" transform="translate(196,428)"/>
<path d="M0 0 C3.96 0 7.92 0 12 0 C12 21.45 12 42.9 12 65 C20.58 65 29.16 65 38 65 C38 69.95 38 74.9 38 80 C25.46 80 12.92 80 0 80 C0 53.6 0 27.2 0 0 Z " fill="#151515" transform="translate(0,407)"/>
<path d="M0 0 C3.96 0 7.92 0 12 0 C12 4.95 12 9.9 12 15 C15.96 15 19.92 15 24 15 C24 19.62 24 24.24 24 29 C20.04 29 16.08 29 12 29 C12.33 30.32 12.66 31.64 13 33 C13.14625035 35.02350669 13.24683203 37.05053334 13.31640625 39.078125 C13.35830078 40.23828125 13.40019531 41.3984375 13.44335938 42.59375 C13.48267578 43.8003125 13.52199219 45.006875 13.5625 46.25 C13.60568359 47.47203125 13.64886719 48.6940625 13.69335938 49.953125 C13.79937355 52.9686392 13.90143936 55.98423448 14 59 C17.3 59 20.6 59 24 59 C24 63.29 24 67.58 24 72 C18.35027504 74.82486248 13.69068695 74.86305053 7.6875 72.9375 C3.64751612 70.02495348 1.68106849 66.59749256 0.40063477 61.71411133 C-0.08449625 58.42757783 -0.11179473 55.27176062 -0.09765625 51.94921875 C-0.0962413 51.29041214 -0.09482635 50.63160553 -0.09336853 49.95283508 C-0.087805 47.86434238 -0.07525947 45.77595989 -0.0625 43.6875 C-0.05748028 42.26497551 -0.0529182 40.84244934 -0.04882812 39.41992188 C-0.03784757 35.94657923 -0.02060835 32.47330039 0 29 C-2.64 29 -5.28 29 -8 29 C-8 24.38 -8 19.76 -8 15 C-5.36 15 -2.72 15 0 15 C0 10.05 0 5.1 0 0 Z " fill="#191919" transform="translate(464,414)"/>
<path d="M0 0 C0 4.95 0 9.9 0 15 C-1.423125 15.12375 -2.84625 15.2475 -4.3125 15.375 C-7.80573798 15.67875982 -8.96474514 15.97649676 -12 18 C-13.26625424 21.79876271 -13.23298547 25.42421926 -13.31640625 29.38671875 C-13.33718735 30.20372757 -13.35796844 31.02073639 -13.37937927 31.86250305 C-13.44473079 34.47075034 -13.50369273 37.07909775 -13.5625 39.6875 C-13.60569892 41.45639054 -13.64931365 43.22527097 -13.69335938 44.99414062 C-13.80039743 49.32932463 -13.90170544 53.66460929 -14 58 C-18.29 58 -22.58 58 -27 58 C-27 38.86 -27 19.72 -27 0 C-23.37 0 -19.74 0 -16 0 C-15.34 1.32 -14.68 2.64 -14 4 C-13.401875 3.360625 -12.80375 2.72125 -12.1875 2.0625 C-7.90466238 -1.97560404 -6.22771806 -0.88967401 0 0 Z " fill="#181819" transform="translate(162,429)"/>
<path d="M0 0 C3.69683573 0.91520105 4.96282953 3.40355326 7.00390625 6.49609375 C8.5452112 9.57870365 8.22952183 12.80330306 8.25390625 16.18359375 C8.27453125 16.87904297 8.29515625 17.57449219 8.31640625 18.29101562 C8.35470267 23.41794923 7.44417448 26.96335254 5.00390625 31.49609375 C1.32023688 33.95187333 -1.71896399 34.30640935 -5.99609375 33.49609375 C-10.23181557 30.36534284 -11.62142557 27.47625126 -12.99609375 22.49609375 C-14.2441342 10.53812478 -14.2441342 10.53812478 -11.18359375 5.87109375 C-10.46171875 5.08734375 -9.73984375 4.30359375 -8.99609375 3.49609375 C-8.58359375 2.87734375 -8.17109375 2.25859375 -7.74609375 1.62109375 C-5.27431213 0.03209128 -2.89112205 -0.09051395 0 0 Z " fill="#F6F6F6" transform="translate(335.99609375,440.50390625)"/>
<path d="M0 0 C3.41369708 2.57700662 5.23344287 5.82992921 6 10 C6.68548532 17.23692703 6.1761609 22.91865621 2 29 C-0.37040308 31.37040308 -1.06302753 31.34465793 -4.3125 31.4375 C-8.03367948 31.35972615 -8.83763836 31.1243621 -11.9375 28.75 C-16.50975291 22.65366279 -16.78905227 17.52486434 -16 10 C-14.834135 6.16586666 -13.58593864 2.98753293 -10.10546875 0.8203125 C-6.72762242 -0.49573152 -3.50783864 -0.80735969 0 0 Z " fill="#F3F3F3" transform="translate(389,441)"/>
<path d="M0 0 C3.5578125 -0.12375 3.5578125 -0.12375 7.1875 -0.25 C7.92508545 -0.28641602 8.6626709 -0.32283203 9.42260742 -0.36035156 C12.9072607 -0.41870362 14.92994533 -0.0402953 17.9609375 1.703125 C20.35250559 4.39707526 20.60492688 5.45703113 20.4375 9 C20.41558594 9.845625 20.39367187 10.69125 20.37109375 11.5625 C19.98283577 14.11274188 19.36700846 15.82057014 18 18 C14.81453711 19.59273144 11.36800652 19.10141833 7.875 19.0625 C5.27625 19.041875 2.6775 19.02125 0 19 C0 12.73 0 6.46 0 0 Z " fill="#F6F7F7" transform="translate(227,453)"/>
<path d="M0 0 C12.51924799 -0.27215756 12.51924799 -0.27215756 16 2 C18.30876536 5.2322715 18.46684256 8.10964537 18 12 C14.84210526 17.57894737 14.84210526 17.57894737 12 19 C9.95944995 19.07065617 7.91665743 19.08421976 5.875 19.0625 C2.966875 19.0315625 2.966875 19.0315625 0 19 C0 12.73 0 6.46 0 0 Z " fill="#F5F5F5" transform="translate(227,421)"/>
<path d="M0 0 C0.6271777 7.99651568 0.6271777 7.99651568 -1.875 12 C-5.17692545 15.10769454 -7.54225097 15.35597094 -12.08984375 15.2734375 C-14 15 -14 15 -16 13.4375 C-17.40358168 10.01626965 -17.52306944 7.66148608 -17 4 C-12.92411244 -1.6771291 -6.28367053 -0.36078491 0 0 Z " fill="#F2F2F2" transform="translate(116,461)"/>
<path d="M0 0 C3.45627601 0.24827692 4.08496451 0.75800246 6.9375 3.125 C7.9584375 4.3934375 7.9584375 4.3934375 9 5.6875 C9.33 6.0175 9.66 6.3475 10 6.6875 C10 8.6675 10 10.6475 10 12.6875 C3.73 12.6875 -2.54 12.6875 -9 12.6875 C-9 6.6875 -9 6.6875 -7 3.3125 C-3.47775176 0.23053279 -3.47775176 0.23053279 0 0 Z " fill="#EEEEEE" transform="translate(433,439.3125)"/>
<path d="M0 0 C3.22224138 0.26801252 4.15095612 0.79349047 6.9375 2.75 C9 5.6875 9 5.6875 10 12.6875 C3.73 12.6875 -2.54 12.6875 -9 12.6875 C-9 6.6875 -9 6.6875 -7 3.3125 C-3.47775176 0.23053279 -3.47775176 0.23053279 0 0 Z " fill="#F0F0F0" transform="translate(62,439.3125)"/>
<path d="M0 0 C3.96 0 7.92 0 12 0 C12 19.14 12 38.28 12 58 C8.37 58 4.74 58 1 58 C1 55.36 1 52.72 1 50 C1.33 50 1.66 50 2 50 C2 51.98 2 53.96 2 56 C4.64 56 7.28 56 10 56 C10 37.85 10 19.7 10 1 C6.7 1 3.4 1 0 1 C0 0.67 0 0.34 0 0 Z M-1 1 C-0.67 1 -0.34 1 0 1 C0 2.65 0 4.3 0 6 C-0.33 6 -0.66 6 -1 6 C-1 4.35 -1 2.7 -1 1 Z " fill="#060606" transform="translate(294,429)"/>
<path d="M0 0 C0.66 0.33 1.32 0.66 2 1 C2 14.2 2 27.4 2 41 C-1.96 41 -5.92 41 -10 41 C-10 29.12 -10 17.24 -10 5 C-9.67 5 -9.34 5 -9 5 C-9 16.22 -9 27.44 -9 39 C-6.03 39 -3.06 39 0 39 C0 26.13 0 13.26 0 0 Z " fill="#0C0E0E" transform="translate(205,446)"/>
<path d="M0 0 C3.3 0 6.6 0 10 0 C7 3 7 3 4.4375 3.375 C3.633125 3.25125 2.82875 3.1275 2 3 C1.34 2.01 0.68 1.02 0 0 Z " fill="#262726" transform="translate(59,486)"/>
</svg>
