<?xml version="1.0" encoding="UTF-8"?>
<svg version="1.1" xmlns="http://www.w3.org/2000/svg" width="497" height="499">
<path d="M0 0 C1.70703125 1.359375 1.70703125 1.359375 3.83203125 4.609375 C4.07052995 8.39045193 3.51207241 11.89571271 2.83203125 15.609375 C-0.44922857 38.044989 5.2071911 59.69067498 18.56640625 77.984375 C25.8093858 87.32243128 33.86420678 96.38680328 42.94140625 103.9765625 C46.42847848 106.98812488 49.6145639 110.3148938 52.83203125 113.609375 C56.39179319 112.34682968 58.91215655 110.95581742 61.70703125 108.421875 C62.73957031 107.48794922 62.73957031 107.48794922 63.79296875 106.53515625 C66.27716009 104.18897554 68.68135181 101.77467645 71.0703125 99.33203125 C72.81501811 97.62601091 74.63577565 96.09660384 76.51953125 94.546875 C92.71511564 80.45828897 104.76977893 61.03345322 107.83203125 39.609375 C108.06413221 35.99869701 108.06900342 32.41355136 108.01953125 28.796875 C108.01888672 27.88228516 108.01824219 26.96769531 108.01757812 26.02539062 C107.98956769 21.74601853 107.82945401 17.78941388 106.83203125 13.609375 C106.28189646 9.01967901 105.99711893 5.76747919 108.76953125 1.921875 C109.78015625 1.15875 110.79078125 0.395625 111.83203125 -0.390625 C112.41726563 -0.84824219 113.0025 -1.30585938 113.60546875 -1.77734375 C130.80000702 -14.3273803 152.64672057 -18.48185846 173.51953125 -18.703125 C174.90495117 -18.74663086 174.90495117 -18.74663086 176.31835938 -18.79101562 C180.67747081 -18.83181364 183.1304322 -18.82189945 186.9140625 -16.49609375 C190.01006384 -13.09742832 189.97294324 -11.03535047 190.03735352 -6.51196289 C190.05727859 -5.26805283 190.07720367 -4.02414276 190.09773254 -2.74253845 C190.11476892 -1.36612105 190.13166643 0.01029809 190.1484375 1.38671875 C190.16924926 2.81494165 190.19043057 4.2431592 190.21195984 5.67137146 C190.26816945 9.50387589 190.31773022 13.33643636 190.36506653 17.16905975 C190.39443578 19.53917063 190.42491807 21.90926485 190.45568848 24.27935791 C190.56689859 32.89869319 190.66860485 41.51809892 190.76125908 50.13765335 C190.81094108 54.75052114 190.86544689 59.36330024 190.92333984 63.97607422 C190.98590813 69.07971958 191.03291726 74.1832018 191.0632019 79.28713989 C191.07565909 81.07158587 191.09309801 82.8560047 191.11575317 84.64035034 C191.14518893 87.07551418 191.15544677 89.50999307 191.16015625 91.9453125 C191.17245773 92.63072617 191.18475922 93.31613983 191.19743347 94.02232361 C191.17518135 98.84216317 190.24487814 102.43485764 187.83203125 106.609375 C183.46781045 109.67852215 179.27140267 110.08279682 174.07421875 110.19921875 C172.55613611 110.25886557 171.03807023 110.31894021 169.52001953 110.37939453 C168.73371155 110.40600159 167.94740356 110.43260864 167.13726807 110.46002197 C130.25587698 111.7781077 95.24736928 121.99893978 66.83203125 146.609375 C62.13938595 150.54955531 59.23239986 151.67801634 53.0625 152.03515625 C47.99187634 151.06720883 44.02512462 147.01064941 40.14111328 143.80371094 C15.40889855 123.51024393 -16.49724426 112.94336949 -48.1953125 111.09375 C-48.90895462 111.05195618 -49.62259674 111.01016235 -50.35786438 110.96710205 C-53.96351409 110.76164848 -57.56857564 110.57963316 -61.17700195 110.43066406 C-62.52295078 110.36526641 -63.8688981 110.29983801 -65.21484375 110.234375 C-66.40948242 110.18539062 -67.60412109 110.13640625 -68.83496094 110.0859375 C-73.41740989 109.43072652 -76.77220292 108.25644072 -79.81576538 104.66490173 C-81.82651597 100.12127883 -81.5856973 95.86395282 -81.55615234 90.94750977 C-81.5614093 89.87377106 -81.56666626 88.80003235 -81.57208252 87.6937561 C-81.58528133 84.14594964 -81.57654388 80.59859225 -81.56640625 77.05078125 C-81.56842716 74.58365289 -81.57133874 72.11652512 -81.57510376 69.6493988 C-81.57952709 64.47869174 -81.57309611 59.30814016 -81.55908203 54.13745117 C-81.54199935 47.5118117 -81.55182581 40.88653704 -81.56979942 34.26091099 C-81.58064451 29.16596228 -81.57718738 24.07109993 -81.56941605 18.97614861 C-81.56741559 16.53332412 -81.56986787 14.09049178 -81.57685471 11.64767647 C-81.58447982 8.23178497 -81.57284887 4.81648245 -81.55615234 1.40063477 C-81.56222504 0.39212967 -81.56829773 -0.61637543 -81.57455444 -1.65544128 C-81.52629776 -6.98906848 -81.1808375 -10.78909776 -78.16796875 -15.390625 C-61.02285309 -31.42960416 -16.23077378 -10.41109093 0 0 Z " fill="#FFFFFF" transform="translate(186.16796875,224.390625)"/>
<path d="M0 0 C0.89710693 0.47920898 1.79421387 0.95841797 2.71850586 1.45214844 C3.72196045 1.9597168 4.72541504 2.46728516 5.75927734 2.99023438 C8.16473905 4.2080241 10.56366367 5.43506718 12.95874023 6.67285156 C18.32709614 9.4367883 23.73467626 12.12158224 29.14038086 14.81152344 C37.5068408 18.97714849 45.8686055 23.15182546 54.22241211 27.34277344 C56.15982801 28.3146213 58.09724656 29.2864639 60.03466797 30.25830078 C60.94578339 30.71533386 61.8568988 31.17236694 62.79562378 31.64324951 C71.04073846 35.77751852 79.29030555 39.9028451 87.55053711 44.00683594 C97.64980964 49.02902616 107.70621523 54.10576874 117.64624023 59.43725586 C121.43235311 61.45137986 125.2304787 63.35818658 129.14819336 65.10449219 C129.91655518 65.44899414 130.68491699 65.79349609 131.4765625 66.1484375 C132.91128267 66.78275786 134.35276786 67.40212218 135.80224609 68.00195312 C140.7815451 70.19959335 144.62273261 73.18468943 147.40600586 77.95214844 C147.95693693 81.8849914 147.12803644 84.95241379 144.78100586 88.20214844 C142.7898094 89.66934583 140.87790064 90.83075027 138.71850586 92.01464844 C135.15332113 93.61148006 135.15332113 93.61148006 134.40600586 96.95214844 C134.2994623 98.53079368 134.24741993 100.11342732 134.22900391 101.69555664 C134.21616867 102.65698074 134.20333344 103.61840485 134.19010925 104.60896301 C134.18272232 105.64647202 134.17533539 106.68398102 134.16772461 107.75292969 C134.15965286 108.822061 134.15158112 109.89119232 134.14326477 110.99272156 C134.12942995 113.25644308 134.1187051 115.52018541 134.11083984 117.78393555 C134.09362462 121.24080018 134.0497317 124.69670904 134.00561523 128.15332031 C133.99548833 130.35318308 133.98697222 132.55305396 133.98022461 134.75292969 C133.95396248 136.30008415 133.95396248 136.30008415 133.9271698 137.87849426 C133.94543687 143.94061416 134.464083 147.28502067 138.40600586 151.95214844 C141.27091526 156.69971258 140.90700314 161.55859963 140.40600586 166.95214844 C138.51968525 172.41255021 135.47260414 175.1713356 130.54272461 178.03417969 C125.95841372 180.0036734 120.73094488 179.87656958 116.11694336 178.04199219 C111.67453111 175.4547446 108.66650041 172.6539771 106.40600586 167.95214844 C104.79486284 161.83204267 105.27130177 157.57299716 108.40600586 151.95214844 C109.43322754 150.92021362 109.43322754 150.92021362 110.48120117 149.86743164 C113.25828315 145.66130076 113.00874595 141.99755157 113.01538086 137.05761719 C113.03191711 136.11026199 113.04845337 135.1629068 113.06549072 134.18684387 C113.11394477 131.17104594 113.13533609 128.15575218 113.15600586 125.13964844 C113.18416768 123.09079498 113.2140954 121.04196499 113.24584961 118.99316406 C113.31970323 113.97953369 113.36929387 108.96618278 113.40600586 103.95214844 C112.83269531 104.27489746 112.25938477 104.59764648 111.66870117 104.93017578 C87.46611657 118.42945131 87.46611657 118.42945131 77.765625 116.3996582 C66.93806492 113.09507771 56.69490608 108.49881233 46.34350586 103.95214844 C44.38623377 103.09869211 42.42863009 102.24599587 40.47070312 101.39404297 C36.58855705 99.70424357 32.70769882 98.01154383 28.82788086 96.31640625 C21.51271824 93.1230193 14.18040742 89.97019514 6.84350586 86.82714844 C5.70453857 86.33730469 4.56557129 85.84746094 3.39208984 85.34277344 C1.85016968 84.68148437 1.85016968 84.68148437 0.27709961 84.00683594 C-0.60018799 83.63026855 -1.47747559 83.25370117 -2.38134766 82.86572266 C-10.34616996 79.57714657 -18.45053284 79.82099754 -26.43800354 82.92402649 C-30.00363092 84.42328789 -33.51884412 86.02092755 -37.03149414 87.63964844 C-38.56387533 88.32424998 -40.097343 89.0064243 -41.63183594 89.6862793 C-44.76269841 91.07660945 -47.88785933 92.47868431 -51.0090332 93.890625 C-57.3128595 96.73563828 -63.66524157 99.46676753 -70.01785278 102.20059204 C-72.97963372 103.47720113 -75.93694449 104.76407567 -78.89477539 106.04980469 C-79.99104248 106.52369629 -81.08730957 106.99758789 -82.21679688 107.48583984 C-84.58806397 108.51539454 -86.95401202 109.55369432 -89.31689453 110.60205078 C-90.55245638 111.14460836 -91.78805116 111.68709094 -93.02368164 112.22949219 C-94.1205127 112.71538818 -95.21734375 113.20128418 -96.34741211 113.7019043 C-104.79073948 116.9533917 -112.95626 117.9380879 -121.59399414 114.95214844 C-127.05764434 112.46856872 -132.35131848 109.6922133 -137.65649414 106.88964844 C-139.0694368 106.15502211 -140.48284604 105.42129246 -141.89672852 104.68847656 C-146.14747684 102.47678424 -150.37446526 100.22274533 -154.59399414 97.95214844 C-155.3376825 97.55392883 -156.08137085 97.15570923 -156.84759521 96.74542236 C-159.05952798 95.55563769 -161.26333027 94.35204717 -163.46508789 93.14355469 C-164.47382713 92.60189919 -164.47382713 92.60189919 -165.50294495 92.04930115 C-168.98051128 90.11728249 -171.6259178 88.46540504 -173.59399414 84.95214844 C-174.1591364 81.62408847 -174.35652955 79.24321607 -172.59281921 76.2570343 C-168.24251788 70.95158389 -163.30732171 68.2937986 -157.17602539 65.37011719 C-156.16416672 64.87103348 -155.15230804 64.37194977 -154.10978699 63.85774231 C-150.88261129 62.26969859 -147.64520711 60.704007 -144.40649414 59.13964844 C-141.22875003 57.58725342 -138.05329864 56.03024659 -134.87814331 54.4725647 C-132.78292637 53.4448842 -130.6868334 52.41898784 -128.58987427 51.39486694 C-121.46511882 47.90612584 -114.42624247 44.28181237 -107.42280579 40.55656433 C-99.68636867 36.44779231 -91.85359608 32.54159698 -84.00662231 28.64916992 C-67.9980699 20.71372991 -67.9980699 20.71372991 -52.15649414 12.45214844 C-49.30616198 10.94478028 -46.45046488 9.44784267 -43.59399414 7.95214844 C-42.67634277 7.46713867 -41.75869141 6.98212891 -40.81323242 6.48242188 C-37.7956261 4.90207533 -34.76016861 3.36157589 -31.71899414 1.82714844 C-30.8031958 1.34052734 -29.88739746 0.85390625 -28.94384766 0.35253906 C-19.22044484 -4.46329312 -9.78602281 -4.87375313 0 0 Z " fill="#FFFFFF" transform="translate(254.593994140625,3.0478515625)"/>
<path d="M0 0 C0.68704514 0.26634247 1.37409027 0.53268494 2.08195496 0.80709839 C9.76663674 3.82330527 17.31028793 7.15909989 24.84375 10.53125 C26.31934177 11.1883408 27.7950932 11.84507316 29.27099609 12.50146484 C31.51301181 13.49890207 33.75476766 14.49689775 35.99560547 15.49697876 C40.80709996 17.64387726 45.62844951 19.76685306 50.45703125 21.875 C51.68914738 22.41497105 52.92116489 22.95516722 54.15307617 23.49560547 C56.41826169 24.48856783 58.68523882 25.47745746 60.9543457 26.46142578 C74.59578463 32.47078463 74.59578463 32.47078463 78.53125 36.40625 C78.6343535 37.76624428 78.6697388 39.13148125 78.67651367 40.49536133 C78.68289352 41.36328812 78.68927338 42.2312149 78.69584656 43.1254425 C78.69751579 44.54254768 78.69751579 44.54254768 78.69921875 45.98828125 C78.70254715 46.95400558 78.70587555 47.91972992 78.70930481 48.91471863 C78.71437927 50.96340456 78.71671298 53.0120988 78.71655273 55.06079102 C78.71873345 58.19496346 78.73686776 61.32878081 78.75585938 64.46289062 C78.75879433 66.45051963 78.76077844 68.4381503 78.76171875 70.42578125 C78.76890427 71.36444534 78.77608978 72.30310944 78.78349304 73.2702179 C78.78041641 74.14760117 78.77733978 75.02498444 78.77416992 75.92895508 C78.77559494 76.6987117 78.77701996 77.46846832 78.77848816 78.2615509 C78.49999471 80.677378 77.73220962 82.30854805 76.53125 84.40625 C72.20975772 85.05855072 69.7563759 85.13136217 65.9375 82.87109375 C63.10212455 80.75678361 60.31724619 78.58509116 57.53125 76.40625 C43.15037171 66.20970077 27.68401537 60.07371756 10.53125 56.40625 C9.42136719 56.16003906 8.31148438 55.91382813 7.16796875 55.66015625 C-23.83885591 50.0611655 -56.21186563 55.97497065 -82.46875 73.40625 C-85.45346515 75.61272314 -88.26808516 77.99096089 -91.0390625 80.4609375 C-94.7628399 83.44235413 -97.88306497 85.46723789 -102.71875 85.28125 C-105.46875 84.40625 -105.46875 84.40625 -107.46875 81.40625 C-107.73617554 79.36402893 -107.73617554 79.36402893 -107.75927734 76.99829102 C-107.77203705 76.11049454 -107.78479675 75.22269806 -107.79794312 74.30799866 C-107.80016876 73.35171066 -107.80239441 72.39542267 -107.8046875 71.41015625 C-107.8113443 70.42506577 -107.8180011 69.43997528 -107.82485962 68.42503357 C-107.83498661 66.34123605 -107.83967662 64.25740609 -107.83935547 62.17358398 C-107.84372865 58.98432041 -107.88004821 55.79644053 -107.91796875 52.60742188 C-107.92383685 50.58333807 -107.92780629 48.55924769 -107.9296875 46.53515625 C-107.94405853 45.58089249 -107.95842957 44.62662872 -107.97323608 43.64344788 C-107.9278801 37.0762201 -107.9278801 37.0762201 -105.78662109 33.95166016 C-103.22607393 32.24444891 -100.7135989 30.8519813 -97.921875 29.55078125 C-96.78596924 29.01888184 -95.65006348 28.48698242 -94.47973633 27.93896484 C-93.22638862 27.36487301 -91.97271633 26.79148935 -90.71875 26.21875 C-90.07924408 25.92333313 -89.43973816 25.62791626 -88.78085327 25.32354736 C-76.7132227 19.74954214 -64.51205792 14.48545567 -52.28125 9.28125 C-51.42430542 8.9161734 -50.56736084 8.5510968 -49.68444824 8.17495728 C-15.70308101 -6.27246217 -15.70308101 -6.27246217 0 0 Z " fill="#FFFFFF" transform="translate(255.46875,102.59375)"/>
<path d="M0 0 C1.051875 0.00386719 2.10375 0.00773438 3.1875 0.01171875 C6 0.3125 6 0.3125 9 2.3125 C9.2734375 4.73828125 9.2734375 4.73828125 9.375 7.625 C9.70694195 10.65181484 9.70694195 10.65181484 11 13.3125 C14.08655167 15.07301115 17.12934372 15.97707746 20.5234375 17.015625 C26.99876791 19.43114151 32.94121933 24.51509618 36.125 30.75 C37.31380487 35.59013411 38.63864951 41.57335525 35.94140625 46.08203125 C32.96783531 47.96668889 29.97052624 47.78594275 26.5625 47.75 C24.58443359 47.77900391 24.58443359 47.77900391 22.56640625 47.80859375 C19 47.3125 19 47.3125 16.65625 45.515625 C15.20733431 43.58829375 14.01505742 41.77545009 12.9375 39.625 C11.34066837 36.05981527 11.34066837 36.05981527 8 35.3125 C5.34152131 35.19023841 2.72076362 35.12737982 0.0625 35.125 C-1.01161133 35.10663086 -1.01161133 35.10663086 -2.10742188 35.08789062 C-5.86770596 35.07743571 -8.87544515 35.08067511 -12 37.3125 C-13.14993366 39.61236731 -13.2316929 41.12719088 -13.3125 43.6875 C-13.34988281 44.45835937 -13.38726562 45.22921875 -13.42578125 46.0234375 C-12.81794716 49.29124278 -11.62891051 50.30290014 -9 52.3125 C-6.53653897 53.27098948 -4.2196047 54.04933958 -1.6875 54.75 C-0.25101914 55.17613071 1.18517231 55.60323804 2.62109375 56.03125 C3.34925293 56.24394531 4.07741211 56.45664063 4.82763672 56.67578125 C30.03236698 64.06327693 30.03236698 64.06327693 36.8828125 74.2421875 C41.15893205 82.16646498 40.70672532 91.22024371 38.8125 99.796875 C36.35626824 107.40174641 30.69101839 114.03645182 24 118.3125 C14.57988166 122.3125 14.57988166 122.3125 10 122.3125 C9.95101562 123.01117188 9.90203125 123.70984375 9.8515625 124.4296875 C9.77679688 125.33976562 9.70203125 126.24984375 9.625 127.1875 C9.55539063 128.09242188 9.48578125 128.99734375 9.4140625 129.9296875 C9 132.3125 9 132.3125 7 134.3125 C3.8125 134.578125 3.8125 134.578125 0 134.5625 C-1.258125 134.56765625 -2.51625 134.5728125 -3.8125 134.578125 C-7 134.3125 -7 134.3125 -9 132.3125 C-9.1953125 129.7109375 -9.1953125 129.7109375 -9.125 126.6875 C-9.10695312 125.68460937 -9.08890625 124.68171875 -9.0703125 123.6484375 C-9.04710937 122.87757813 -9.02390625 122.10671875 -9 121.3125 C-10.27875 121.27125 -11.5575 121.23 -12.875 121.1875 C-21.66601871 120.17846798 -28.04885393 114.89449622 -33.625 108.33984375 C-36.44494199 104.18203156 -37.27724856 100.61829781 -37.25 95.625 C-37.25515625 94.67238281 -37.2603125 93.71976562 -37.265625 92.73828125 C-37 90.3125 -37 90.3125 -35 88.3125 C-32.32264758 88.03299618 -29.80474346 87.89634309 -27.125 87.875 C-26.40441406 87.84212891 -25.68382812 87.80925781 -24.94140625 87.77539062 C-21.06985329 87.736176 -19.39838991 87.9231351 -16.5859375 90.671875 C-15.52920965 92.4313529 -14.50028105 94.20782979 -13.5 96 C-11.75635157 98.68812467 -10.97006093 99.20610313 -8 100.3125 C-0.9300303 101.01298087 7.38526689 101.62582116 13.66015625 97.78125 C15.94454168 95.27708405 16.29241432 92.81593701 16.36328125 89.49609375 C16.11489186 87.0395691 16.11489186 87.0395691 14 84.4375 C7.81496819 80.0564358 0.97851743 78.41236445 -6.25 76.5 C-17.43802448 73.40253707 -27.59500412 69.74108335 -35 60.3125 C-38.88079158 53.08011568 -39.15999231 43.54585611 -36.875 35.75 C-34.09722798 28.29934047 -28.71966892 21.59787377 -22 17.3125 C-13.0310559 13.3125 -13.0310559 13.3125 -9 13.3125 C-9.03480469 12.62542969 -9.06960937 11.93835938 -9.10546875 11.23046875 C-9.13253906 10.32941406 -9.15960938 9.42835938 -9.1875 8.5 C-9.23970703 7.16001953 -9.23970703 7.16001953 -9.29296875 5.79296875 C-9 3.3125 -9 3.3125 -7.86328125 1.5078125 C-5.19881261 -0.20146927 -3.13936526 -0.0500144 0 0 Z " fill="#FFFFFF" transform="translate(241,179.6875)"/>
<path d="M0 0 C32.38888889 0 32.38888889 0 37.9375 4.25 C42.57209648 10.42946198 43.96207045 15.3419192 43 23 C41.6875 25.875 41.6875 25.875 40 28 C39.443125 28.763125 38.88625 29.52625 38.3125 30.3125 C37.879375 30.869375 37.44625 31.42625 37 32 C37.928125 32.53625 38.85625 33.0725 39.8125 33.625 C43.42540571 36.31696896 44.58261959 37.74785877 46 42 C46.76300881 48.31601733 46.35546998 54.47473848 43 60 C38.70056025 64.99934855 35.60060254 66.11411356 29 68 C19.43 68 9.86 68 0 68 C0 45.56 0 23.12 0 0 Z " fill="#181719" transform="translate(219,410)"/>
<path d="M0 0 C0.33 -0.66 0.66 -1.32 1 -2 C5.29 -2 9.58 -2 14 -2 C14.04966198 4.67113171 14.08584343 11.34215432 14.10986328 18.01342773 C14.11988328 20.28004838 14.13350297 22.54665623 14.15087891 24.81323242 C14.17530362 28.0825518 14.18652343 31.35169936 14.1953125 34.62109375 C14.20563507 35.62458359 14.21595764 36.62807343 14.22659302 37.66197205 C14.22795643 46.32932834 13.66381409 54.07756056 8 61 C2.74247914 66.14068706 -2.10333939 68.00898721 -9.375 68.3125 C-17.97346365 68.06390496 -23.96311746 64.99806014 -30 59 C-28.6062718 54.56541027 -26.39417765 52.12621626 -23 49 C-22.38253906 49.37253906 -21.76507813 49.74507813 -21.12890625 50.12890625 C-15.77158049 53.12150679 -12.03270109 54.57643573 -5.91015625 53.6875 C-3.59604761 52.85461018 -2.51689774 51.92600046 -1 50 C-0.2730774 46.89160979 -0.2730774 46.89160979 0 44 C-1.4540625 44.495 -1.4540625 44.495 -2.9375 45 C-8.87273407 46.65133529 -14.4695528 46.98002232 -20.1875 44.4375 C-25.51184323 41.41930943 -29.10241313 37.54521209 -31.140625 31.765625 C-32.96258369 23.78213327 -33.91079354 12.89962489 -29.40234375 5.6796875 C-21.09223285 -4.27392723 -11.56881588 -6.822635 0 0 Z " fill="#181718" transform="translate(400,431)"/>
<path d="M0 0 C3.96 0 7.92 0 12 0 C12 22.44 12 44.88 12 68 C8.04 68 4.08 68 0 68 C-0.33 67.01 -0.66 66.02 -1 65 C-1.763125 65.66 -2.52625 66.32 -3.3125 67 C-7.87367865 70.00843698 -12.74506652 69.85840533 -18 69 C-23.30345628 66.89474286 -28.28446459 63.08134277 -31 58 C-34.5253974 47.79340592 -35.03383534 39.07648828 -31 29 C-28.23776423 23.67789005 -24.66447967 20.09585748 -19 18 C-12.76390099 16.39674759 -8.63203 16.94931708 -3 20 C-2.67 20.33 -2.34 20.66 -2 21 C-1.34 14.07 -0.68 7.14 0 0 Z " fill="#181818" transform="translate(350,410)"/>
<path d="M0 0 C4.5444283 3.21548505 5.72596521 6.78459442 7.06030273 12.11206055 C7.61723669 15.61168384 7.62385017 19.04963354 7.59765625 22.58203125 C7.5962413 23.30742599 7.59482635 24.03282074 7.59336853 24.78019714 C7.58779931 27.0826745 7.57525261 29.38505235 7.5625 31.6875 C7.55748102 33.25455588 7.55291881 34.8216133 7.54882812 36.38867188 C7.53783998 40.21748589 7.52059673 44.04622611 7.5 47.875 C5.54196493 47.92889087 3.58351091 47.96774217 1.625 48 C0.53445312 48.02320313 -0.55609375 48.04640625 -1.6796875 48.0703125 C-4.5 47.875 -4.5 47.875 -6.5 45.875 C-7.263125 46.37 -8.02625 46.865 -8.8125 47.375 C-13.80377735 49.40535011 -18.17697391 49.58896773 -23.5 48.875 C-27.95146251 46.68973658 -30.68885145 43.9355479 -33.5 39.875 C-35.14931703 34.92704892 -35.0388733 30.59265863 -33.5 25.6875 C-30.63156347 21.65376114 -28.29063677 19.3806287 -23.5 17.875 C-17.51577986 17.28438885 -11.49457475 17.58679929 -5.5 17.875 C-6.16 15.565 -6.82 13.255 -7.5 10.875 C-11.48610212 9.98161403 -11.48610212 9.98161403 -15.5 9.875 C-16.263125 10.7 -17.02625 11.525 -17.8125 12.375 C-20.5 14.875 -20.5 14.875 -23.25 14.98828125 C-26.02629578 14.71560934 -28.75342017 14.36082235 -31.5 13.875 C-31.85028885 10.19696713 -31.61347493 8.1114061 -30 4.75 C-22.57724842 -3.78616431 -9.83310901 -5.53567618 0 0 Z " fill="#181718" transform="translate(122.5,430.125)"/>
<path d="M0 0 C5.05987485 4.50988845 7.50493896 10.42674281 9 17 C9 19.97 9 22.94 9 26 C-6.345 26.495 -6.345 26.495 -22 27 C-20.46687233 31.31608796 -20.46687233 31.31608796 -18 35 C-14.63778411 35.37357954 -11.35839558 35.41641942 -8 35 C-6.62689293 33.70766393 -5.28965176 32.37562854 -4 31 C0.01255259 30.35362646 4.14268527 30.71422842 8 32 C6.77809799 37.55410004 5.18077801 40.91212817 1 45 C-5.20146682 48.87591676 -11.84807565 48.78680008 -19 48 C-24.92294052 46.32262324 -28.51582877 43.07693522 -32 38 C-36.12001141 29.61283391 -37.38560661 21.19101436 -34.81640625 12.08203125 C-31.99396168 4.88412237 -28.04254095 0.1300182 -21 -3 C-13.69911502 -5.73783187 -6.56996162 -3.56431591 0 0 Z " fill="#181818" transform="translate(77,431)"/>
<path d="M0 0 C8.26560134 8.45782463 8 13.72197571 8 26 C-2.23 26 -12.46 26 -23 26 C-20.94596069 30.82143028 -20.94596069 30.82143028 -18 35 C-15.73889194 35.27705788 -15.73889194 35.27705788 -13.125 35.3125 C-12.24070312 35.34988281 -11.35640625 35.38726562 -10.4453125 35.42578125 C-7.23657876 34.86707202 -6.83337967 33.57175449 -5 31 C-0.78077237 30.66514066 2.9513199 30.65043997 7 32 C6.58558243 37.28382406 5.88841677 40.31098922 2 44 C-4.3374177 48.77647738 -11.32605443 48.93163044 -19 48 C-25.17384844 46.30344653 -29.6714827 42.41272907 -33 37 C-36.83770704 28.51359878 -37.53418276 19.37416672 -34.25 10.625 C-30.97265395 3.43304617 -27.29475181 -0.09349733 -20 -3 C-13.40413184 -5.11915443 -5.68296378 -3.8326965 0 0 Z " fill="#181718" transform="translate(455,431)"/>
<path d="M0 0 C4.93865446 3.22086161 8.14977466 7.25134531 9.875 12.875 C10.04085708 15.77072199 10.10841501 18.56490202 10.0703125 21.45703125 C10.0674826 22.27121017 10.06465271 23.0853891 10.06173706 23.92424011 C10.05058584 26.512146 10.02549083 29.09969958 10 31.6875 C9.98996365 33.44726061 9.98083894 35.20702667 9.97265625 36.96679688 C9.9506631 41.26966598 9.91616836 45.57227336 9.875 49.875 C5.585 49.875 1.295 49.875 -3.125 49.875 C-3.14481934 48.92657227 -3.16463867 47.97814453 -3.18505859 47.00097656 C-3.26325761 43.47467636 -3.34995366 39.94879639 -3.44238281 36.42285156 C-3.48061266 34.89819342 -3.515476 33.37344693 -3.546875 31.84863281 C-3.59265662 29.65397619 -3.65062766 27.4599246 -3.7109375 25.265625 C-3.72248871 24.5863092 -3.73403992 23.90699341 -3.74594116 23.20709229 C-3.85734916 19.6166264 -4.18458376 16.93881512 -6.125 13.875 C-7.58292884 13.82100264 -9.04142712 13.78220823 -10.5 13.75 C-11.71816406 13.71519531 -11.71816406 13.71519531 -12.9609375 13.6796875 C-15.33842243 13.66129949 -15.33842243 13.66129949 -17.125 15.875 C-17.44029552 18.44572696 -17.64017626 20.92672657 -17.7578125 23.5078125 C-17.79937469 24.25964813 -17.84093689 25.01148376 -17.88375854 25.78610229 C-18.01463878 28.19035947 -18.13246339 30.59505712 -18.25 33 C-18.33638137 34.62895199 -18.42361032 36.25785927 -18.51171875 37.88671875 C-18.72598883 41.88235992 -18.92855165 45.87844457 -19.125 49.875 C-23.415 49.875 -27.705 49.875 -32.125 49.875 C-32.125 33.705 -32.125 17.535 -32.125 0.875 C-28.165 0.875 -24.205 0.875 -20.125 0.875 C-19.795 1.865 -19.465 2.855 -19.125 3.875 C-18.196875 3.235625 -17.26875 2.59625 -16.3125 1.9375 C-10.90209772 -1.56334853 -6.13109572 -2.20719446 0 0 Z " fill="#191A19" transform="translate(201.125,428.125)"/>
<path d="M0 0 C4.62 0 9.24 0 14 0 C14.06058594 2.26359375 14.12117188 4.5271875 14.18359375 6.859375 C14.24544121 9.05699816 14.3088048 11.25457276 14.37231445 13.45214844 C14.41556707 14.97684386 14.45724885 16.50158469 14.49731445 18.02636719 C14.55525203 20.22084222 14.61887795 22.41509068 14.68359375 24.609375 C14.70030624 25.2886908 14.71701874 25.96800659 14.73423767 26.66790771 C14.83507472 29.90538552 15.03139176 32.89769604 16 36 C17.62600941 35.9129995 19.25089678 35.8048219 20.875 35.6875 C21.77992188 35.62949219 22.68484375 35.57148438 23.6171875 35.51171875 C26.36221601 35.2117961 26.36221601 35.2117961 28 32 C29.04781059 25.01228302 29.29100513 17.99191587 29.5625 10.9375 C29.60568359 9.88111328 29.64886719 8.82472656 29.69335938 7.73632812 C29.79837282 5.15766458 29.89958095 2.57884654 30 0 C33.96 0 37.92 0 42 0 C42 16.17 42 32.34 42 49 C38.04 49 34.08 49 30 49 C29.67 48.01 29.34 47.02 29 46 C28.401875 46.474375 27.80375 46.94875 27.1875 47.4375 C22.77982272 50.58584092 18.21491476 50.58224776 13 50 C9.11830962 48.93083265 6.12677089 47.4719666 3.6484375 44.234375 C-1.29829775 35.19501705 -0.12465683 24.4873123 -0.0625 14.5 C-0.05747533 13.09114742 -0.05291413 11.68229311 -0.04882812 10.2734375 C-0.03710039 6.84893974 -0.01916678 3.42446421 0 0 Z " fill="#181819" transform="translate(269,429)"/>
<path d="M0 0 C3.96 0 7.92 0 12 0 C12 18.15 12 36.3 12 55 C20.58 55 29.16 55 38 55 C38 59.29 38 63.58 38 68 C25.46 68 12.92 68 0 68 C0 45.56 0 23.12 0 0 Z " fill="#161616" transform="translate(0,410)"/>
<path d="M0 0 C3.96 0 7.92 0 12 0 C12 4.29 12 8.58 12 13 C15.96 13 19.92 13 24 13 C24 16.63 24 20.26 24 24 C20.04 24 16.08 24 12 24 C12.66 32.58 13.32 41.16 14 50 C17.3 50 20.6 50 24 50 C24 53.96 24 57.92 24 62 C18.0584528 63.4853868 12.53325455 63.75059394 6.625 62 C3.0129857 59.2479891 1.32701117 56.2629539 0 52 C-0.4729135 47.15390014 -0.37849587 42.36307442 -0.25 37.5 C-0.23195313 36.200625 -0.21390625 34.90125 -0.1953125 33.5625 C-0.14842615 30.37422849 -0.08280893 27.187507 0 24 C-2.64 24 -5.28 24 -8 24 C-8 20.37 -8 16.74 -8 13 C-5.36 13 -2.72 13 0 13 C0 8.71 0 4.42 0 0 Z " fill="#191919" transform="translate(473,416)"/>
<path d="M0 0 C0 4.62 0 9.24 0 14 C-2.50651042 14.16276042 -5.01302083 14.32552083 -7.51953125 14.48828125 C-10.44348193 15.09148997 -11.20499908 15.65384358 -13 18 C-13.48842548 20.47548716 -13.48842548 20.47548716 -13.4765625 23.26171875 C-13.52296875 24.81729492 -13.52296875 24.81729492 -13.5703125 26.40429688 C-13.58835938 27.48775391 -13.60640625 28.57121094 -13.625 29.6875 C-13.67658047 31.81648379 -13.73120692 33.94539624 -13.7890625 36.07421875 C-13.81645508 37.08532715 -13.84384766 38.09643555 -13.87207031 39.13818359 C-14.03600422 42.80542257 -14.464478 46.36986315 -15 50 C-19.29 50 -23.58 50 -28 50 C-28 33.83 -28 17.66 -28 1 C-24.04 1 -20.08 1 -16 1 C-15.67 1.99 -15.34 2.98 -15 4 C-14.195625 3.34 -13.39125 2.68 -12.5625 2 C-8.4761594 -0.78302333 -4.81196561 -0.29163428 0 0 Z " fill="#1B1B1B" transform="translate(165,428)"/>
<path d="M0 0 C2.63021439 0.53988611 3.50652993 1.24270925 5.2265625 3.26953125 C8.43187823 8.3780032 8.77371983 12.57508995 8.2265625 18.45703125 C7.32382099 21.92196559 5.91069879 24.67154144 3.5390625 27.39453125 C0.10768882 28.97110835 -3.11227075 29.11211079 -6.7734375 28.45703125 C-10.86384869 26.05613773 -12.3121765 23.8792685 -13.7734375 19.45703125 C-14.44519517 14.09078099 -14.43443862 9.75624035 -11.9609375 4.89453125 C-8.15463934 0.65322759 -5.46366618 -0.09788327 0 0 Z " fill="#5703C5" transform="translate(342.7734375,438.54296875)"/>
<path d="M0 0 C3.28175318 2.52968474 4.69243777 4.07731331 6 8 C6.61276031 14.08046765 5.95290128 18.64103101 3 24 C-1.26646874 26.84431249 -5.00082743 26.97658255 -10 26 C-13.0287407 24.20298685 -14.58359383 22.20904524 -16 19 C-17.00850814 13.54775289 -16.70820118 9.39198164 -14.1875 4.4375 C-9.91892449 -0.31891271 -6.12761885 -1.07502085 0 0 Z " fill="#5703C6" transform="translate(396,439)"/>
<path d="M0 0 C3.5578125 -0.0928125 3.5578125 -0.0928125 7.1875 -0.1875 C8.29387817 -0.22846802 8.29387817 -0.22846802 9.42260742 -0.27026367 C13.827366 -0.32558339 16.5179177 0.29171377 20 3 C21.54586876 6.09173752 21.29359521 8.59429552 21 12 C19.13291495 14.36497439 17.67938569 15.66030715 15 17 C12.44612508 17.07173806 9.92723239 17.09287732 7.375 17.0625 C4.94125 17.041875 2.5075 17.02125 0 17 C0 11.39 0 5.78 0 0 Z " fill="#5503C1" transform="translate(231,449)"/>
<path d="M0 0 C1.876875 -0.04125 3.75375 -0.0825 5.6875 -0.125 C6.74324219 -0.14820313 7.79898438 -0.17140625 8.88671875 -0.1953125 C12.05522823 0.00346476 14.18862338 0.55125457 17 2 C18.56935594 5.13871188 18.35201103 7.53855822 18 11 C16.3125 13.9375 16.3125 13.9375 13 16 C8.57771908 16.41760038 4.46093817 16.22529991 0 16 C0 10.72 0 5.44 0 0 Z " fill="#5803C8" transform="translate(231,422)"/>
<path d="M0 0 C1.74216797 0.05414063 1.74216797 0.05414063 3.51953125 0.109375 C4.39996094 0.15578125 5.28039062 0.2021875 6.1875 0.25 C6.5 3.4375 6.5 3.4375 6.1875 7.25 C3.75 10.125 3.75 10.125 1.1875 12.25 C0.8575 12.58 0.5275 12.91 0.1875 13.25 C-3.88029056 13.64113371 -6.16918834 13.61956202 -9.75 11.5625 C-11.8125 9.25 -11.8125 9.25 -12.4375 6.75 C-10.87739286 0.50957145 -5.66868079 -0.22903761 0 0 Z " fill="#5603C3" transform="translate(111.8125,455.75)"/>
<path d="M0 0 C3.70928971 0.90558831 5.43137067 2.66905393 8 5.48828125 C8.33 7.13828125 8.66 8.78828125 9 10.48828125 C2.4 10.48828125 -4.2 10.48828125 -11 10.48828125 C-11 5.48828125 -11 5.48828125 -9 2.67578125 C-5.85574519 0.38309545 -3.90173379 -0.25863766 0 0 Z " fill="#5703C5" transform="translate(65,437.51171875)"/>
<path d="M0 0 C3.73286067 0.90956644 5.4535836 2.61916827 8.00390625 5.48828125 C8.00390625 7.13828125 8.00390625 8.78828125 8.00390625 10.48828125 C1.73390625 10.48828125 -4.53609375 10.48828125 -10.99609375 10.48828125 C-10.99609375 5.48828125 -10.99609375 5.48828125 -8.99609375 2.67578125 C-5.85328757 0.38415174 -3.90035297 -0.25903672 0 0 Z " fill="#5703C6" transform="translate(442.99609375,437.51171875)"/>
<path d="M0 0 C0.66 0.33 1.32 0.66 2 1 C2 12.22 2 23.44 2 35 C-2.29 35 -6.58 35 -11 35 C-11 25.1 -11 15.2 -11 5 C-10.34 4.67 -9.68 4.34 -9 4 C-9 13.57 -9 23.14 -9 33 C-6.03 33 -3.06 33 0 33 C0 22.11 0 11.22 0 0 Z " fill="#0D0E0E" transform="translate(209,443)"/>
<path d="M0 0 C3.63 0 7.26 0 11 0 C11 0.33 11 0.66 11 1 C8.03 1 5.06 1 2 1 C2 16.18 2 31.36 2 47 C5.3 47 8.6 47 12 47 C12 47.66 12 48.32 12 49 C8.04 49 4.08 49 0 49 C0 32.83 0 16.66 0 0 Z " fill="#060606" transform="translate(137,429)"/>
</svg>
